<svg id="wave" style="transform:rotate(0deg); transition: 0.3s" viewBox="0 0 1440 100" version="1.1" xmlns="http://www.w3.org/2000/svg"><defs><linearGradient id="sw-gradient-0" x1="0" x2="0" y1="1" y2="0"><stop stop-color="rgba(255, 255, 255, 1)" offset="0%"></stop><stop stop-color="rgba(255, 255, 255, 1)" offset="100%"></stop></linearGradient></defs><path style="transform:translate(0, 0px); opacity:1" fill="url(#sw-gradient-0)" d="M0,20L48,16.7C96,13,192,7,288,5C384,3,480,7,576,13.3C672,20,768,30,864,40C960,50,1056,60,1152,60C1248,60,1344,50,1440,40C1536,30,1632,20,1728,18.3C1824,17,1920,23,2016,31.7C2112,40,2208,50,2304,53.3C2400,57,2496,53,2592,55C2688,57,2784,63,2880,63.3C2976,63,3072,57,3168,50C3264,43,3360,37,3456,38.3C3552,40,3648,50,3744,58.3C3840,67,3936,73,4032,63.3C4128,53,4224,27,4320,23.3C4416,20,4512,40,4608,43.3C4704,47,4800,33,4896,38.3C4992,43,5088,67,5184,66.7C5280,67,5376,43,5472,28.3C5568,13,5664,7,5760,3.3C5856,0,5952,0,6048,6.7C6144,13,6240,27,6336,31.7C6432,37,6528,33,6624,30C6720,27,6816,23,6864,21.7L6912,20L6912,100L6864,100C6816,100,6720,100,6624,100C6528,100,6432,100,6336,100C6240,100,6144,100,6048,100C5952,100,5856,100,5760,100C5664,100,5568,100,5472,100C5376,100,5280,100,5184,100C5088,100,4992,100,4896,100C4800,100,4704,100,4608,100C4512,100,4416,100,4320,100C4224,100,4128,100,4032,100C3936,100,3840,100,3744,100C3648,100,3552,100,3456,100C3360,100,3264,100,3168,100C3072,100,2976,100,2880,100C2784,100,2688,100,2592,100C2496,100,2400,100,2304,100C2208,100,2112,100,2016,100C1920,100,1824,100,1728,100C1632,100,1536,100,1440,100C1344,100,1248,100,1152,100C1056,100,960,100,864,100C768,100,672,100,576,100C480,100,384,100,288,100C192,100,96,100,48,100L0,100Z"></path></svg>